<svg version="1.1" id="Layer_1" xmlns="http://www.w3.org/2000/svg" xmlns:xlink="http://www.w3.org/1999/xlink" x="0px" y="0px" width="100%" viewBox="0 0 86 88" enable-background="new 0 0 86 88" xml:space="preserve">
<path fill="#6160F6" opacity="1.000000" stroke="none" d=" M1.000000,82.000000   C1.000000,60.979103 1.000000,39.958210 1.402241,18.352133   C29.606956,15.277576 57.409431,12.788203 85.560089,10.267654   C85.560089,31.730356 85.560089,52.756264 85.560089,74.262016   C75.097816,75.193855 64.854935,76.082619 54.616817,77.023224   C36.743000,78.665344 18.872114,80.339355 1.000000,82.000000  M39.178043,58.025986   C40.418877,57.223808 41.659710,56.421631 42.900543,55.619450   C41.649441,54.941067 40.466167,53.948757 39.130829,53.660217   C37.275135,53.259235 35.305412,53.385960 32.760620,53.254585   C32.760620,46.951561 32.760620,41.094501 32.760620,34.978134   C30.657108,35.079136 29.223358,35.147980 27.566299,35.227547   C27.566299,42.877346 27.566299,50.232105 27.566299,58.026970   C31.356461,58.026970 34.808788,58.026970 39.178043,58.025986  M51.594101,57.997181   C53.913536,57.992847 56.258785,58.186039 58.539825,57.887917   C59.465069,57.766994 60.250446,56.575859 61.099464,55.871700   C60.249043,55.143024 59.483116,53.950882 58.531479,53.777386   C56.194897,53.351395 53.772770,53.394646 50.979088,53.224396   C50.979088,46.889221 50.979088,41.148811 50.979088,35.332870   C49.143925,35.332870 47.765446,35.332870 46.197880,35.332870   C46.197880,42.870846 46.197880,50.101379 46.197880,57.684483   C47.781254,57.795765 49.212269,57.896339 51.594101,57.997181  z"/>
<path fill="#F1F2F6" opacity="1.000000" stroke="none" d=" M1.000000,82.497902   C18.872114,80.339355 36.743000,78.665344 54.616817,77.023224   C64.854935,76.082619 75.097816,75.193855 85.560089,74.262016   C85.560089,52.756264 85.560089,31.730356 85.560089,10.267654   C57.409431,12.788203 29.606956,15.277576 1.402241,17.883476   C1.000000,12.343244 1.000000,6.686486 0.999995,1.022297   C29.606617,1.014865 58.213242,1.014865 86.909935,1.014865   C86.909935,30.221746 86.909935,59.443863 86.909935,88.832993   C58.334179,88.832993 29.667116,88.832993 1.000000,88.832993   C1.000000,86.988792 1.000000,84.992302 1.000000,82.497902  z"/>
<path fill="#F5F5FE" opacity="1.000000" stroke="none" d=" M38.719582,58.026478   C34.808788,58.026970 31.356461,58.026970 27.566299,58.026970   C27.566299,50.232105 27.566299,42.877346 27.566299,35.227547   C29.223358,35.147980 30.657108,35.079136 32.760620,34.978134   C32.760620,41.094501 32.760620,46.951561 32.760620,53.254585   C35.305412,53.385960 37.275135,53.259235 39.130829,53.660217   C40.466167,53.948757 41.649441,54.941067 42.900543,55.619453   C41.659710,56.421631 40.418877,57.223808 38.719582,58.026478  z"/>
<path fill="#FEFEFF" opacity="1.000000" stroke="none" d=" M51.118690,57.997047   C49.212269,57.896339 47.781254,57.795765 46.197880,57.684483   C46.197880,50.101379 46.197880,42.870846 46.197880,35.332870   C47.765446,35.332870 49.143925,35.332870 50.979088,35.332870   C50.979088,41.148811 50.979088,46.889221 50.979088,53.224396   C53.772770,53.394646 56.194897,53.351395 58.531479,53.777386   C59.483116,53.950882 60.249043,55.143024 61.099464,55.871700   C60.250446,56.575859 59.465069,57.766994 58.539825,57.887917   C56.258785,58.186039 53.913536,57.992847 51.118690,57.997047  z"/>
</svg>